<mxfile host="app.diagrams.net" agent="Mozilla/5.0 (Windows NT 10.0; Win64; x64) AppleWebKit/537.36 (KHTML, like Gecko) Chrome/133.0.0.0 Safari/537.36 Edg/133.0.0.0" version="26.0.15">
  <diagram name="Página-1" id="K413v8vrPgffCM0xlKgj">
    <mxGraphModel dx="720" dy="407" grid="1" gridSize="10" guides="1" tooltips="1" connect="1" arrows="1" fold="1" page="1" pageScale="1" pageWidth="827" pageHeight="1169" math="0" shadow="0">
      <root>
        <mxCell id="0" />
        <mxCell id="1" parent="0" />
        <mxCell id="16js6FyB0rFr7WBdWaQI-18" style="edgeStyle=orthogonalEdgeStyle;rounded=0;orthogonalLoop=1;jettySize=auto;html=1;exitX=1;exitY=0.5;exitDx=0;exitDy=0;entryX=0;entryY=0.5;entryDx=0;entryDy=0;" edge="1" parent="1" source="16js6FyB0rFr7WBdWaQI-14" target="16js6FyB0rFr7WBdWaQI-15">
          <mxGeometry relative="1" as="geometry">
            <mxPoint x="210" y="180" as="targetPoint" />
          </mxGeometry>
        </mxCell>
        <mxCell id="16js6FyB0rFr7WBdWaQI-14" value="Início" style="ellipse;whiteSpace=wrap;html=1;aspect=fixed;fillColor=#60a917;fontColor=#ffffff;strokeColor=#2D7600;" vertex="1" parent="1">
          <mxGeometry x="120" y="160" width="40" height="40" as="geometry" />
        </mxCell>
        <mxCell id="16js6FyB0rFr7WBdWaQI-20" style="edgeStyle=orthogonalEdgeStyle;rounded=0;orthogonalLoop=1;jettySize=auto;html=1;exitX=0.5;exitY=1;exitDx=0;exitDy=0;entryX=0.5;entryY=0;entryDx=0;entryDy=0;" edge="1" parent="1" source="16js6FyB0rFr7WBdWaQI-15" target="16js6FyB0rFr7WBdWaQI-19">
          <mxGeometry relative="1" as="geometry" />
        </mxCell>
        <mxCell id="16js6FyB0rFr7WBdWaQI-15" value="Digite&amp;nbsp;&lt;span style=&quot;background-color: transparent; color: light-dark(rgb(0, 0, 0), rgb(255, 255, 255));&quot;&gt;o total&lt;/span&gt;&lt;div&gt;&lt;div&gt;&amp;nbsp;de notas&lt;/div&gt;&lt;/div&gt;" style="shape=parallelogram;perimeter=parallelogramPerimeter;whiteSpace=wrap;html=1;fixedSize=1;align=center;fillColor=#0050ef;fontColor=#ffffff;strokeColor=#001DBC;" vertex="1" parent="1">
          <mxGeometry x="200" y="150" width="120" height="60" as="geometry" />
        </mxCell>
        <mxCell id="16js6FyB0rFr7WBdWaQI-22" style="edgeStyle=orthogonalEdgeStyle;rounded=0;orthogonalLoop=1;jettySize=auto;html=1;exitX=1;exitY=0.5;exitDx=0;exitDy=0;entryX=0;entryY=0.5;entryDx=0;entryDy=0;" edge="1" parent="1" source="16js6FyB0rFr7WBdWaQI-19" target="16js6FyB0rFr7WBdWaQI-21">
          <mxGeometry relative="1" as="geometry" />
        </mxCell>
        <mxCell id="16js6FyB0rFr7WBdWaQI-19" value="ler totalDeNotas" style="shape=document;whiteSpace=wrap;html=1;boundedLbl=1;fillColor=#647687;fontColor=#ffffff;strokeColor=#314354;" vertex="1" parent="1">
          <mxGeometry x="200" y="240" width="120" height="80" as="geometry" />
        </mxCell>
        <mxCell id="16js6FyB0rFr7WBdWaQI-24" style="edgeStyle=orthogonalEdgeStyle;rounded=0;orthogonalLoop=1;jettySize=auto;html=1;exitX=0.5;exitY=1;exitDx=0;exitDy=0;entryX=0.5;entryY=0;entryDx=0;entryDy=0;" edge="1" parent="1" source="16js6FyB0rFr7WBdWaQI-21" target="16js6FyB0rFr7WBdWaQI-23">
          <mxGeometry relative="1" as="geometry" />
        </mxCell>
        <mxCell id="16js6FyB0rFr7WBdWaQI-30" value="SIM" style="edgeLabel;html=1;align=center;verticalAlign=middle;resizable=0;points=[];" vertex="1" connectable="0" parent="16js6FyB0rFr7WBdWaQI-24">
          <mxGeometry x="-0.2263" relative="1" as="geometry">
            <mxPoint as="offset" />
          </mxGeometry>
        </mxCell>
        <mxCell id="16js6FyB0rFr7WBdWaQI-32" style="edgeStyle=orthogonalEdgeStyle;rounded=0;orthogonalLoop=1;jettySize=auto;html=1;exitX=0.5;exitY=0;exitDx=0;exitDy=0;entryX=0;entryY=0.5;entryDx=0;entryDy=0;" edge="1" parent="1" source="16js6FyB0rFr7WBdWaQI-21" target="16js6FyB0rFr7WBdWaQI-31">
          <mxGeometry relative="1" as="geometry" />
        </mxCell>
        <mxCell id="16js6FyB0rFr7WBdWaQI-37" value="NÃO" style="edgeLabel;html=1;align=center;verticalAlign=middle;resizable=0;points=[];" vertex="1" connectable="0" parent="16js6FyB0rFr7WBdWaQI-32">
          <mxGeometry x="-0.4751" y="2" relative="1" as="geometry">
            <mxPoint as="offset" />
          </mxGeometry>
        </mxCell>
        <mxCell id="16js6FyB0rFr7WBdWaQI-21" value="contador&lt;div&gt;&lt;span style=&quot;background-color: transparent; color: light-dark(rgb(0, 0, 0), rgb(255, 255, 255));&quot;&gt;&amp;nbsp;menor ou igual&lt;/span&gt;&lt;/div&gt;&lt;div&gt;&lt;span style=&quot;background-color: transparent; color: light-dark(rgb(0, 0, 0), rgb(255, 255, 255));&quot;&gt;totalDeNotas?&lt;/span&gt;&lt;/div&gt;" style="rhombus;whiteSpace=wrap;html=1;fillColor=#fa6800;fontColor=#000000;strokeColor=#C73500;" vertex="1" parent="1">
          <mxGeometry x="370" y="220" width="130" height="120" as="geometry" />
        </mxCell>
        <mxCell id="16js6FyB0rFr7WBdWaQI-26" style="edgeStyle=orthogonalEdgeStyle;rounded=0;orthogonalLoop=1;jettySize=auto;html=1;exitX=1;exitY=0.5;exitDx=0;exitDy=0;entryX=0;entryY=0.5;entryDx=0;entryDy=0;" edge="1" parent="1" source="16js6FyB0rFr7WBdWaQI-23" target="16js6FyB0rFr7WBdWaQI-25">
          <mxGeometry relative="1" as="geometry" />
        </mxCell>
        <mxCell id="16js6FyB0rFr7WBdWaQI-23" value="Informe a nota N" style="shape=parallelogram;perimeter=parallelogramPerimeter;whiteSpace=wrap;html=1;fixedSize=1;fillColor=#0050ef;fontColor=#ffffff;strokeColor=#001DBC;" vertex="1" parent="1">
          <mxGeometry x="375" y="390" width="120" height="60" as="geometry" />
        </mxCell>
        <mxCell id="16js6FyB0rFr7WBdWaQI-28" style="edgeStyle=orthogonalEdgeStyle;rounded=0;orthogonalLoop=1;jettySize=auto;html=1;exitX=0.5;exitY=0;exitDx=0;exitDy=0;entryX=0.5;entryY=1;entryDx=0;entryDy=0;" edge="1" parent="1" source="16js6FyB0rFr7WBdWaQI-25" target="16js6FyB0rFr7WBdWaQI-27">
          <mxGeometry relative="1" as="geometry" />
        </mxCell>
        <mxCell id="16js6FyB0rFr7WBdWaQI-25" value="ler notaAtual" style="shape=document;whiteSpace=wrap;html=1;boundedLbl=1;fillColor=#647687;fontColor=#ffffff;strokeColor=#314354;" vertex="1" parent="1">
          <mxGeometry x="530" y="380" width="120" height="80" as="geometry" />
        </mxCell>
        <mxCell id="16js6FyB0rFr7WBdWaQI-29" style="edgeStyle=orthogonalEdgeStyle;rounded=0;orthogonalLoop=1;jettySize=auto;html=1;exitX=0;exitY=0.5;exitDx=0;exitDy=0;entryX=1;entryY=0.5;entryDx=0;entryDy=0;" edge="1" parent="1" source="16js6FyB0rFr7WBdWaQI-27" target="16js6FyB0rFr7WBdWaQI-21">
          <mxGeometry relative="1" as="geometry" />
        </mxCell>
        <mxCell id="16js6FyB0rFr7WBdWaQI-27" value="soma = soma + notaAtual;&lt;div&gt;contador++&lt;/div&gt;" style="shape=hexagon;perimeter=hexagonPerimeter2;whiteSpace=wrap;html=1;fixedSize=1;fillColor=#6a00ff;fontColor=#ffffff;strokeColor=#3700CC;" vertex="1" parent="1">
          <mxGeometry x="530" y="240" width="120" height="80" as="geometry" />
        </mxCell>
        <mxCell id="16js6FyB0rFr7WBdWaQI-34" style="edgeStyle=orthogonalEdgeStyle;rounded=0;orthogonalLoop=1;jettySize=auto;html=1;exitX=1;exitY=0.5;exitDx=0;exitDy=0;entryX=0;entryY=0.5;entryDx=0;entryDy=0;" edge="1" parent="1" source="16js6FyB0rFr7WBdWaQI-31" target="16js6FyB0rFr7WBdWaQI-33">
          <mxGeometry relative="1" as="geometry" />
        </mxCell>
        <mxCell id="16js6FyB0rFr7WBdWaQI-31" value="media = soma / totalDeNotas" style="shape=hexagon;perimeter=hexagonPerimeter2;whiteSpace=wrap;html=1;fixedSize=1;fillColor=#6a00ff;fontColor=#ffffff;strokeColor=#3700CC;" vertex="1" parent="1">
          <mxGeometry x="520" y="120" width="120" height="80" as="geometry" />
        </mxCell>
        <mxCell id="16js6FyB0rFr7WBdWaQI-36" style="edgeStyle=orthogonalEdgeStyle;rounded=0;orthogonalLoop=1;jettySize=auto;html=1;exitX=0.5;exitY=1;exitDx=0;exitDy=0;entryX=0.5;entryY=0;entryDx=0;entryDy=0;" edge="1" parent="1" source="16js6FyB0rFr7WBdWaQI-33" target="16js6FyB0rFr7WBdWaQI-35">
          <mxGeometry relative="1" as="geometry" />
        </mxCell>
        <mxCell id="16js6FyB0rFr7WBdWaQI-33" value="media" style="shape=parallelogram;perimeter=parallelogramPerimeter;whiteSpace=wrap;html=1;fixedSize=1;fillColor=#0050ef;fontColor=#ffffff;strokeColor=#001DBC;" vertex="1" parent="1">
          <mxGeometry x="700" y="170" width="120" height="60" as="geometry" />
        </mxCell>
        <mxCell id="16js6FyB0rFr7WBdWaQI-35" value="FIM" style="ellipse;whiteSpace=wrap;html=1;aspect=fixed;fillColor=#a20025;fontColor=#ffffff;strokeColor=#6F0000;" vertex="1" parent="1">
          <mxGeometry x="735" y="270" width="50" height="50" as="geometry" />
        </mxCell>
      </root>
    </mxGraphModel>
  </diagram>
</mxfile>
